<svg viewBox="0 0 706.44 291.43" xmlns="http://www.w3.org/2000/svg"><path d="M0 0h706.44v291.43H0z" fill="#fbf7f0"/><path d="M351.11 46.26v3" fill="none" stroke="#fff" stroke-linecap="round" stroke-linejoin="round" stroke-width="2"/><path d="M351.11 55.46V225.9" fill="none" stroke-linecap="round" stroke-linejoin="round" stroke="#fff" stroke-width="2" stroke-dasharray="6.2 6.2"/><path d="M351.11 229v3" fill="none" stroke="#fff" stroke-linecap="round" stroke-linejoin="round" stroke-width="2"/><path d="M86.6 66.78c-15.5 1-31.07.77-46.6.54-8.31-.12-17.6-.58-23.16-5.51-6.76-6-4.33-16.22 2.71-22.15C27.42 33 38.6 30.81 49.24 28.92c4-.71 8-1.56 12.11-2.12 2.67-.37 5.31-.88 8-1.08a363.08 363.08 0 0143.88-.88c5.86.3 11.84.78 17.15 2.76s9.93 5.69 10.92 10.36c.82 3.85-.91 7.84-3.54 11.16-4.58 5.77-11.81 9.94-19.63 12.57s-16.24 3.81-24.63 4.56c-2.28.21-4.59.38-6.9.53z" fill="#fff"/><path d="M167.06 93.46c-13.21.92-26.49.63-39.74.33-7.09-.16-15-.66-19.77-5.62-5.79-6-3.76-16.23 2.21-22.13 6.68-6.62 16.2-8.76 25.27-10.6 3.44-.7 6.85-1.52 10.31-2.07 2.28-.35 4.53-.86 6.85-1a262.49 262.49 0 0137.41-.68c5 .32 10.1.83 14.64 2.83s8.5 5.74 9.36 10.41c.72 3.86-.74 7.84-3 11.15-3.87 5.74-10 9.88-16.68 12.48S180.12 92.25 173 93c-2 .16-4 .32-5.94.46z" fill="#fff"/><path d="M129.19 132.93c-18.49 1.09-37.07.95-55.6.82-9.91-.08-21-.48-27.59-5.38-8-6-5.07-16.19 3.36-22.17 9.44-6.7 22.78-9 35.49-10.91 4.82-.74 9.61-1.61 14.46-2.19 3.18-.39 6.34-.92 9.59-1.13a513.72 513.72 0 0152.35-1.14c7 .26 14.12.71 20.45 2.65s11.81 5.64 13 10.3c1 3.85-1.13 7.85-4.29 11.19-5.49 5.79-14.15 10-23.49 12.68s-19.4 3.91-29.42 4.71q-4.16.33-8.31.57z" fill="#fff"/><g fill="#1d2d35"><path d="M40.28 45.31s0 .52.11 1.38.1 1.46.12 1.73a10 10 0 01-1.27 5.35c-1.11 2.08-2.51 3.17-4.17 3.28A4.2 4.2 0 0131 54.9a10.38 10.38 0 01-1.42-4.9c0-.61-.06-1.54 0-2.76s0-2.16-.07-2.79c0-.14-.05-.38-.07-.72a4.12 4.12 0 01-.09-.7.71.71 0 01.25-.58.86.86 0 01.55-.26c.72 0 1.12.53 1.2 1.7 0 .5 0 1.61.06 3.32s0 2.76 0 3.12a6.68 6.68 0 001.3 3.83 2.55 2.55 0 002.2 1.16c1.35-.09 2.39-1 3.13-2.87a11.87 11.87 0 00.77-5.16 30.64 30.64 0 00-.81-4.71c-.13-.56-.31-1.29-.53-2.18a.9.9 0 01.91-1 .82.82 0 01.81.53 11.78 11.78 0 011.11 4.37 8.87 8.87 0 01-.02 1.01zM50.12 55.37c0 .41-.18.65-.5.67a1 1 0 01-.86-.35 1.53 1.53 0 01-.4-.94v-1.3l.15-2.9a15.42 15.42 0 00-3.68 4.27c-.14.28-.25.58-.37.86s-.41.59-.64.61c-.94.06-1.48-1.24-1.66-3.92A20.37 20.37 0 0142.6 47c.07-.32.21-.51.48-.53a1.11 1.11 0 01.88.33 1.52 1.52 0 01.41.94c-.09.46-.17 1-.24 1.51a17.91 17.91 0 00-.13 3.46 18.24 18.24 0 014.84-4.78 1.7 1.7 0 01.9.28 1.07 1.07 0 01.48.81c.09 1.03.05 3.16-.1 6.35zM57.63 54.4a4.23 4.23 0 01-2.52 1.19 3.28 3.28 0 01-2.42-.77 3.23 3.23 0 01-1.11-2.35 6.29 6.29 0 011.05-3.93 4.67 4.67 0 013.61-2.45 1.63 1.63 0 011 .25 1.06 1.06 0 01.46.83 1.17 1.17 0 01-.33.81 1.27 1.27 0 01-.85.44 2.49 2.49 0 01-1.25-.14A4.92 4.92 0 0053.84 50a4 4 0 00-.47 2.11c.07 1.13.53 1.64 1.44 1.58a2.3 2.3 0 001.38-.52c.21-.24.47-.49.72-.73a1.43 1.43 0 01.74-.5.84.84 0 01.63.25 1.06 1.06 0 01.31.66c.03.47-.3.96-.96 1.55zM66.68 55.11A4 4 0 0162.75 53l-.68.05a4.3 4.3 0 01-1.75-.25c-.79-.26-1.18-.64-1.21-1.14s.23-1 .82-1a1.52 1.52 0 01.69.29 1.54 1.54 0 001 .28h.52a4.52 4.52 0 01-.15-.92 6 6 0 01.6-3.09 2.78 2.78 0 012.28-1.83 2.38 2.38 0 011.7.71 2.49 2.49 0 01.92 1.72c.11 1.66-.92 3.18-3.09 4.54a2.28 2.28 0 001.87.85 7.56 7.56 0 00.85-.12c.38-.07.67-.14.85-.15a.94.94 0 01.65.25 1.06 1.06 0 01.31.66c0 .73-.74 1.15-2.25 1.26zm-1.27-7.58a1 1 0 00-.55-.19c-.41 0-.7.39-.88 1.08a4.65 4.65 0 00-.2 1.78v.4c1.29-1 1.91-1.82 1.86-2.56a.89.89 0 00-.23-.51zM76.56 46.77a2.44 2.44 0 01-1.19.47l-.43-.11q-2.66 1.53-3 5.69c-.07.73-.13 1.2-.18 1.43-.11.42-.32.64-.59.65a1 1 0 01-.79-.37 1.49 1.49 0 01-.38-1 5 5 0 01.12-.91A7.42 7.42 0 0070.2 51c0-.54-.15-1.25-.3-2.13a3.93 3.93 0 01-.76-2.3 1.22 1.22 0 01.15-.68.57.57 0 01.44-.33 1.14 1.14 0 011 .63 8.46 8.46 0 01.61 2q1.86-3.24 4.5-3.42a1.19 1.19 0 01.86.35 1.31 1.31 0 01.44.85c.07.26-.14.55-.58.8zM84.71 46a.78.78 0 01-.56.37 1.15 1.15 0 01-.86-.26c-.15 0-.54 0-1.17.06l-1.26.06c-.29 1.78-.46 2.88-.53 3.31a21.69 21.69 0 00-.22 3.46.93.93 0 01.39.77 1 1 0 01-.27.65 1.1 1.1 0 01-.64.31c-.74.05-1.14-.56-1.22-1.77a17.28 17.28 0 01.21-3.25l.42-3.28c-.7 0-1.06-.25-1.1-.9a.81.81 0 01.35-.84 2.71 2.71 0 011-.23c.43-2.42.8-4.3 1.11-5.68.11-.48.36-.74.77-.77.58 0 .92.28 1 1-.1.48-.25 1-.41 1.68-.21.94-.42 2.15-.64 3.65l1.67-.06c1.31 0 2 .32 2 1a1.38 1.38 0 01-.04.72zM92.31 48a8.39 8.39 0 00-.31 2.74 6.54 6.54 0 00.23 1.18c.13.53.22.8.22.87a.89.89 0 01-.25.65 1.21 1.21 0 01-.64.27c-.65 0-1.09-.81-1.32-2.51A5.21 5.21 0 0187 53.31a2.14 2.14 0 01-1.74-.72 2.61 2.61 0 01-.84-1.8c-.09-1.3.58-2.75 2-4.29s2.69-2.31 3.93-2.39a1.49 1.49 0 01.9.3 1 1 0 01.48.74 1.62 1.62 0 010 .32 4.25 4.25 0 01.31 1.36 1.07 1.07 0 01.34.63 2.19 2.19 0 01-.07.54zm-2.45-1.82c-.43 0-1.14.59-2.11 1.65s-1.58 2.12-1.53 2.84c0 .56.28.82.76.78.67 0 1.42-.59 2.21-1.68a4.61 4.61 0 001.13-2.79c-.04-.58-.19-.86-.46-.84zM96.29 46.75a21.82 21.82 0 00-.44 4.69 1.33 1.33 0 01.52 1c0 .13-.08.25-.2.4a.62.62 0 01-.39.23c-1 .06-1.59-.83-1.72-2.67a28 28 0 01.56-5.19c-.06-.27-.09-.45-.1-.54a.78.78 0 01.48-.77 1.28 1.28 0 011.58 1.32zm.08-8.91a1.64 1.64 0 01-.39-.06c-.66-.19-1-.75-1.08-1.7 0-.47.26-.83.88-1.09.77 0 1.18.51 1.25 1.45s-.16 1.37-.66 1.4zM106.28 51.65c0 .41-.18.64-.5.66a1 1 0 01-.86-.35 1.51 1.51 0 01-.4-.94v-1.29l.15-2.91a15.74 15.74 0 00-3.67 4.27c-.14.28-.25.58-.37.86s-.41.59-.64.61c-.94.06-1.48-1.24-1.66-3.91a20.88 20.88 0 01.39-5.41c.07-.32.21-.51.48-.53a1.14 1.14 0 01.88.33 1.54 1.54 0 01.41.94c-.09.46-.17 1-.24 1.51a18.73 18.73 0 00-.11 3.49A18.39 18.39 0 01105 44.2a1.79 1.79 0 01.9.28 1.07 1.07 0 01.48.81c.09 1.03.05 3.16-.1 6.36zM114.7 44a.76.76 0 01-.56.37 1.13 1.13 0 01-.85-.26c-.16 0-.54 0-1.18.06l-1.26.06c-.29 1.78-.46 2.88-.52 3.31a20.66 20.66 0 00-.23 3.46.91.91 0 01.39.76.89.89 0 01-.27.66 1.07 1.07 0 01-.64.31c-.74 0-1.14-.56-1.22-1.77a18.19 18.19 0 01.21-3.25l.46-3.29c-.69 0-1-.24-1.1-.89a.82.82 0 01.36-.84 2.6 2.6 0 011-.23c.43-2.42.8-4.3 1.12-5.68.1-.48.35-.74.76-.77.58 0 .92.28 1 .95-.1.48-.24 1-.4 1.67-.21.94-.43 2.16-.64 3.66l1.67-.06c1.31 0 2 .32 2 1a1.23 1.23 0 01-.1.77zM121.44 54.19a8 8 0 01-5.26 2.13c-1.39.1-2.12-.28-2.17-1.1a.79.79 0 01.79-.95h1.23c3.44-.27 5.32-1.91 5.66-4.94a13.23 13.23 0 000-2.19c-1.09 1.74-2.2 2.65-3.35 2.73a2 2 0 01-1.71-.61 2.62 2.62 0 01-.75-1.78 18.89 18.89 0 010-2.13 20.55 20.55 0 000-2.08 2.75 2.75 0 00-.16-.58 2 2 0 01-.15-.58c0-.56.26-.87.94-.92.36 0 .67.21.9.69a3.58 3.58 0 01.37 1.42c0 .2 0 .84-.1 1.88a20.82 20.82 0 00-.07 2.11c0 .4.2.6.56.57a2.16 2.16 0 001.49-1.11 21.74 21.74 0 001.47-2.72c.29-.61.61-.95 1-1 .7 0 1.11.74 1.22 2.31l.1 1.51c.29 3.39-.45 5.79-2.01 7.34zM129.18 72.16s0 .52.11 1.38.1 1.46.11 1.73a9.81 9.81 0 01-1.27 5.35c-1.1 2.08-2.5 3.17-4.16 3.28a4.19 4.19 0 01-4.08-2.15 10.27 10.27 0 01-1.41-4.94c0-.61-.06-1.54 0-2.76s0-2.16-.07-2.8c0-.13 0-.38-.07-.71a4.12 4.12 0 01-.09-.7.71.71 0 01.25-.58.8.8 0 01.5-.26c.72 0 1.12.53 1.2 1.7 0 .5 0 1.61.06 3.32s0 2.76 0 3.12a6.55 6.55 0 001.3 3.82 2.54 2.54 0 002.2 1.17c1.35-.09 2.39-1 3.13-2.88a11.66 11.66 0 00.76-5.15 29.53 29.53 0 00-.78-4.68c-.13-.55-.31-1.29-.53-2.18a.89.89 0 01.91-1 .8.8 0 01.8.53 11.55 11.55 0 011.15 4.34 8.87 8.87 0 01-.02 1.05zM139 82.22c0 .41-.19.65-.5.67a1 1 0 01-.86-.35 1.5 1.5 0 01-.4-1s0-.45.05-1.29l.14-2.9a15.53 15.53 0 00-3.67 4.27c-.14.28-.25.58-.37.86s-.41.59-.64.61c-.94.06-1.48-1.24-1.66-3.92a20 20 0 01.39-5.4c.06-.32.21-.51.48-.53a1.14 1.14 0 01.88.32 1.5 1.5 0 01.4 1c-.08.46-.16 1-.24 1.51a18.68 18.68 0 00-.1 3.49 18.21 18.21 0 014.83-4.78 1.65 1.65 0 01.9.28 1.09 1.09 0 01.49.81c.09 1.03.05 3.13-.12 6.35zM147 74.42a17.59 17.59 0 01-3.48 1.4c.75.77 2.24 2.07 4.44 3.94.77.65 1.16 1.07 1.17 1.3 0 .65-.29 1-1 1.06-.24 0-.81-.36-1.68-1.14s-2.09-1.87-3.87-3.54c0 .86.06 1.56.1 2.15 0 .2 0 .49.08.85s.08.6.09.72a.92.92 0 01-.25.69.84.84 0 01-.63.31c-.75 0-1.15-.58-1.24-1.88a1.27 1.27 0 01.09-.46 1.26 1.26 0 00.08-.39c0-.09 0-.36-.1-.81s-.06-.69-.07-.83c0-.47-.05-1.64 0-3.5.05-2 .1-3.65.2-4.83q.06-.67.21-1.71c0-.36.05-.91.12-1.59a.82.82 0 01.82-.84.79.79 0 011 .79c0 .14-.06.89-.17 2.23-.2 2.07-.32 4-.34 5.81a15.45 15.45 0 005.28-2.61 1.2 1.2 0 01.52-.33c.69 0 1.07.24 1.11.85s-.8 1.48-2.48 2.36zM158.33 80.94c0 .41-.19.65-.5.67a1.05 1.05 0 01-.86-.35 1.5 1.5 0 01-.4-1s0-.45.05-1.29l.14-2.9a15.39 15.39 0 00-3.67 4.27c-.14.28-.25.58-.37.86s-.41.59-.64.6c-.94.07-1.48-1.23-1.66-3.91a20 20 0 01.39-5.4c.07-.32.21-.52.48-.53a1.1 1.1 0 01.88.32 1.5 1.5 0 01.4 1c-.08.46-.16 1-.23 1.51a17.81 17.81 0 00-.11 3.48 18.31 18.31 0 014.83-4.77 1.57 1.57 0 01.9.28 1.06 1.06 0 01.49.8c.07 1.04.03 3.17-.12 6.36zM166 79.44a3.3 3.3 0 01-2.65 1.71 3 3 0 01-2.43-1 4.18 4.18 0 01-1.11-2.77 5.78 5.78 0 01.47-2.79 4.15 4.15 0 011.72-2.07 6.7 6.7 0 00.72-.44 1.37 1.37 0 01.63-.33 3 3 0 01.55.1 4 4 0 012.1 1.33 4.22 4.22 0 01.9 2.36 6.56 6.56 0 01-.9 3.9zm-1.68-5.25a1.63 1.63 0 01-.89-.14 1.8 1.8 0 00-1.48 1.2 4.08 4.08 0 00-.39 2.06 2.36 2.36 0 00.52 1.39 1.24 1.24 0 001.13.56 1.82 1.82 0 001.39-1.11 4 4 0 00.49-2.16c-.03-.94-.3-1.56-.74-1.8zM182.57 74a12.21 12.21 0 01-1.08 4.16c-.78 1.55-1.79 2.38-3 2.46q-2.19.15-3.43-3.3A21.3 21.3 0 01173 80c-.95 1-1.69 1.56-2.18 1.6q-1 .06-1.92-2.64a16.64 16.64 0 01-.92-4.39 11.61 11.61 0 01.12-3c.1-.53.37-.82.85-.85.72 0 1.11.45 1.18 1.46a5.76 5.76 0 01-.18 1 5 5 0 00-.14 1.27 11.54 11.54 0 001.19 4.84 10.64 10.64 0 003.51-5.39c.17-.5.42-.77.78-.79s.67.22.8.74c.67 3.32 1.41 4.94 2.22 4.89s1.46-.78 2-2.21a10.18 10.18 0 00.56-4.09c0-.18-.05-.42-.09-.74s-.1-.49-.11-.53c0-.68.23-1 .84-1.07.76-.06 1.23.84 1.35 2.66a2 2 0 01-.29 1.24zM192 78.71c0 .41-.18.64-.5.67a1.06 1.06 0 01-.86-.35 1.56 1.56 0 01-.4-1s0-.45.05-1.29l.15-2.9a15.57 15.57 0 00-3.68 4.26c-.14.28-.25.59-.37.86s-.41.6-.64.61c-.94.06-1.48-1.23-1.66-3.91a20.88 20.88 0 01.39-5.41c.07-.32.22-.51.48-.53a1.18 1.18 0 01.89.33 1.62 1.62 0 01.4 1c-.09.45-.17 1-.24 1.5a18.76 18.76 0 00-.11 3.49 18.19 18.19 0 014.84-4.77 1.61 1.61 0 01.9.28 1 1 0 01.48.8q.07 1.56-.12 6.36zM199.21 70.77a.84.84 0 01-.59.29 3 3 0 01-.59 0h-.6c-.59 0-.87.28-.84.71a11.15 11.15 0 001 2.44 10.25 10.25 0 011 3.1A2 2 0 01198 79a4 4 0 01-2.32.81c-1.62.1-2.43-.18-2.47-.81a1.09 1.09 0 01.2-.74.63.63 0 01.49-.39h.75a8.67 8.67 0 001.11 0c.74-.05 1.11-.33 1.07-.87a11.18 11.18 0 00-1-2.46 9.32 9.32 0 01-1-2.94 2.13 2.13 0 011.44-2.24 1.41 1.41 0 011.29-.65c1-.07 1.62.23 1.75.9a1.18 1.18 0 01.17.51.75.75 0 01-.27.65zM61.2 114.15c-1.72 1.93-3.24 3-4.53 3.22 0 .22 0 .63.1 1.24s.07 1 .07 1a2.54 2.54 0 01.25.69v.69a12.44 12.44 0 00.38 2c-.08.61-.35 1-.8 1s-.84-.44-1.08-1.38a17.23 17.23 0 01-.59-3.44c-.11-1.53-.11-3.7 0-6.49a1.05 1.05 0 01-.88-1c0-.36.28-.9.91-1.62 2.19-2.49 4.16-3.8 5.89-3.92a2.44 2.44 0 011.93.78 3.42 3.42 0 01.86 2.09c.12 1.47-.71 3.17-2.51 5.14zm.4-5.86a.88.88 0 00-.64-.22c-1 .06-2.4 1-4.14 2.69 0 .61-.08 2.18-.12 4.66a15.41 15.41 0 003.41-2.78c1.26-1.41 1.87-2.7 1.8-3.82a.71.71 0 00-.31-.53zM71.14 114.89a2.35 2.35 0 01-1.19.47l-.44-.11q-2.64 1.53-3 5.69a13.45 13.45 0 01-.17 1.44c-.11.41-.32.63-.59.65a1 1 0 01-.8-.38 1.6 1.6 0 01-.38-1 6.5 6.5 0 01.12-.91 6.79 6.79 0 00.07-1.65c0-.54-.15-1.26-.29-2.13a4 4 0 01-.77-2.3 1.34 1.34 0 01.16-.69.53.53 0 01.43-.32 1.14 1.14 0 011.06.63 8.34 8.34 0 01.61 2c1.23-2.16 2.74-3.3 4.49-3.42a1.16 1.16 0 01.86.35 1.29 1.29 0 01.44.86c.03.28-.17.57-.61.82zM78.06 120.29a3.27 3.27 0 01-2.64 1.71 3 3 0 01-2.44-.94 4.25 4.25 0 01-1.11-2.78 5.92 5.92 0 01.47-2.79 4.15 4.15 0 011.71-2.12 5.54 5.54 0 00.72-.43 1.31 1.31 0 01.63-.34 4.36 4.36 0 01.55.1A4.1 4.1 0 0178 114a4.22 4.22 0 01.9 2.36 6.55 6.55 0 01-.84 3.93zM76.38 115a1.63 1.63 0 01-.89-.14 1.81 1.81 0 00-1.49 1.25 4 4 0 00-.39 2 2.35 2.35 0 00.53 1.39 1.22 1.22 0 001.12.56c.54 0 1-.4 1.39-1.11a3.87 3.87 0 00.49-2.15c-.05-.9-.32-1.51-.76-1.8zM86.53 119.82a8.37 8.37 0 01-4.53 2.31 1.33 1.33 0 01-1.56-1 1.18 1.18 0 01.55-1 22.15 22.15 0 01-.29-2.65c-.1-1.42-.12-3.13-.07-5.13a40.18 40.18 0 01.66-6.35c.22-1.14.54-1.73 1-1.76.63 0 1 .34 1.05 1.15a12.26 12.26 0 01-.29 2.74 1.07 1.07 0 01-.48.62c-.14 2-.18 4.37-.18 7.13 1.36-1.9 2.72-2.92 4-3a2.46 2.46 0 011.85.67 2.55 2.55 0 01.87 1.82c.09 1.45-.79 2.9-2.58 4.45zm-.12-4.9a2.92 2.92 0 00-1.48 1 8.78 8.78 0 00-1.58 2 3.41 3.41 0 00-.67 1.58v.58a6 6 0 001.57-.82c2.1-1.43 3.13-2.63 3.06-3.6.01-.55-.31-.78-.9-.74zM92.86 106.13l-.14.24a30.47 30.47 0 00-.49 7.83c.07 1.08.31 3 .72 5.73a1.47 1.47 0 00.07.43c0 .18.06.31.07.38a.51.51 0 01-.2.35.67.67 0 01-.4.23c-.45 0-.85-.28-1.21-.91a4.52 4.52 0 01-.63-2.08 3.2 3.2 0 01.12-1.48c-.18-1.35-.29-2.4-.34-3.17a28.69 28.69 0 01.73-8.73c.19-.82.44-1.27.73-1.29a1.55 1.55 0 011 .5 1.75 1.75 0 01.63 1 1.06 1.06 0 01-.66.97zM101.42 120.57a4 4 0 01-3.94-2.07h-.67a4.32 4.32 0 01-1.76-.25c-.78-.26-1.17-.64-1.2-1.14s.23-1 .81-1a1.5 1.5 0 01.7.29 1.53 1.53 0 00.94.28h.52a6.25 6.25 0 01-.15-.91 6.08 6.08 0 01.61-3.1 2.79 2.79 0 012.27-1.82 2.35 2.35 0 011.7.7 2.51 2.51 0 01.93 1.73c.11 1.66-.92 3.18-3.09 4.54a2.3 2.3 0 001.86.85 7.26 7.26 0 00.85-.12 7.38 7.38 0 01.85-.15.88.88 0 01.65.25 1.08 1.08 0 01.32.66c.05.69-.69 1.16-2.2 1.26zm-1.27-7.57a1 1 0 00-.56-.19c-.4 0-.69.39-.88 1.08a4.82 4.82 0 00-.19 1.77v.41c1.29-1 1.92-1.82 1.87-2.57a.9.9 0 00-.24-.5zM118.6 118.84c-.94.06-1.7-1.44-2.26-4.53a18.44 18.44 0 00-2.57 3.54c-.4.73-.81 1.09-1.21 1.12a1.2 1.2 0 01-1.09-.74 10.81 10.81 0 01-1.28-4.23 9.39 9.39 0 00-3.62 5.39c-.14.64-.45 1-.93 1-.69 0-1.07-.56-1.16-1.82a18.39 18.39 0 01.29-3.45 19.6 19.6 0 00.32-3.12 3 3 0 00-.43-1.31 1.21 1.21 0 01.39-.9 1.19 1.19 0 01.79-.4c.65 0 1 .66 1.13 2a23.34 23.34 0 01-.4 3.81c2.49-2.68 4-4 4.59-4.08a.71.71 0 01.75.38 4.42 4.42 0 01.19 1.16 12.12 12.12 0 00.59 3.58c1.93-3 3.46-4.53 4.6-4.6.5 0 .76.22.82.76.25 2.28.66 3.84 1.26 4.61a2.41 2.41 0 01.38.63c.05.78-.34 1.15-1.15 1.2zM132.76 110.19a.75.75 0 01-.59.29 3.69 3.69 0 01-.59 0H131c-.59 0-.87.29-.84.71a11.34 11.34 0 001 2.45 10.3 10.3 0 011 3.09 2 2 0 01-.68 1.65 3.88 3.88 0 01-2.32.81c-1.62.11-2.43-.18-2.47-.81a1.06 1.06 0 01.2-.73.64.64 0 01.49-.4h.75a7.14 7.14 0 001.11 0c.74 0 1.11-.32 1.07-.86a11.17 11.17 0 00-1-2.47 9.5 9.5 0 01-1-2.94 2.13 2.13 0 011.44-2.24 1.45 1.45 0 011.29-.65c1-.07 1.62.23 1.75.9a1.23 1.23 0 01.17.51.74.74 0 01-.2.69zM139.68 116.2a3.27 3.27 0 01-2.64 1.71 3 3 0 01-2.44-.94 4.25 4.25 0 01-1.11-2.78 5.92 5.92 0 01.47-2.79 4.15 4.15 0 011.71-2.12 5.54 5.54 0 00.72-.43 1.31 1.31 0 01.63-.34 4.36 4.36 0 01.55.1 4.1 4.1 0 012.06 1.33 4.22 4.22 0 01.9 2.36 6.55 6.55 0 01-.85 3.9zM138 111a1.63 1.63 0 01-.89-.14 1.8 1.8 0 00-1.48 1.21 4 4 0 00-.39 2 2.35 2.35 0 00.53 1.39 1.21 1.21 0 001.12.56c.54 0 1-.4 1.39-1.11a4 4 0 00.49-2.15c-.06-.95-.33-1.56-.77-1.76zM144.54 102.7l-.14.24a30.93 30.93 0 00-.5 7.83c.07 1.08.31 3 .72 5.73a2.79 2.79 0 00.07.43c0 .18.07.31.08.38a.53.53 0 01-.21.35.68.68 0 01-.39.23c-.45 0-.85-.28-1.21-.91a4.53 4.53 0 01-.64-2.09 3.28 3.28 0 01.13-1.47c-.18-1.35-.29-2.4-.35-3.17a28.69 28.69 0 01.74-8.73c.19-.82.43-1.27.72-1.29a1.59 1.59 0 011 .5 1.72 1.72 0 01.62 1 1.05 1.05 0 01-.64.97zM154.2 109.83a33.63 33.63 0 00-4.33 6.55c-.34.68-.7 1-1.06 1.07-.52 0-1-.46-1.32-1.43a37.07 37.07 0 01-1.49-5.62 6.41 6.41 0 01-.19-1.11.9.9 0 01.23-.65.89.89 0 01.57-.31.87.87 0 01.62.21 1.08 1.08 0 01.35.54c.5 2.34.91 4.07 1.21 5.23a68.87 68.87 0 014.53-6.34 1.13 1.13 0 01.22-.76.8.8 0 01.61-.33 1.07 1.07 0 01.71.22.93.93 0 01.34.66 3.34 3.34 0 01-1 2.07zM158.28 110.4a21.73 21.73 0 00-.44 4.68 1.35 1.35 0 01.52 1 .59.59 0 01-.2.4.61.61 0 01-.39.22c-1 .07-1.59-.82-1.72-2.66a28.94 28.94 0 01.56-5.19c-.06-.27-.09-.45-.1-.54a.78.78 0 01.47-.75 1.28 1.28 0 011.58 1.32zm.08-8.91a1.26 1.26 0 01-.38-.07c-.67-.18-1-.74-1.09-1.69 0-.47.26-.83.88-1.1.77 0 1.18.51 1.25 1.46s-.16 1.36-.66 1.4zM168.27 115.3c0 .4-.18.64-.5.66a1 1 0 01-.86-.35 1.53 1.53 0 01-.4-.94s0-.46.05-1.29l.15-2.91a15.5 15.5 0 00-3.67 4.27c-.14.28-.26.58-.38.86s-.41.59-.64.61c-.94.06-1.48-1.24-1.66-3.91a20.88 20.88 0 01.39-5.41c.07-.32.22-.51.49-.53a1.12 1.12 0 01.88.33 1.57 1.57 0 01.4.94c-.08.46-.16 1-.24 1.51a18.73 18.73 0 00-.11 3.49 18.39 18.39 0 014.84-4.78 1.79 1.79 0 01.9.28 1.07 1.07 0 01.48.81c.07 1.06.03 3.16-.12 6.36zM176.8 109.55a6 6 0 00-.11 1.8q.15 6.9-5.29 8.89a5.56 5.56 0 01-1.27.27c-.63 0-1-.28-1-.93a1.09 1.09 0 01.33-.84 1.17 1.17 0 01.81-.43 1.08 1.08 0 01.52 0c2.63-.62 4-2.46 4.12-5.45a3.36 3.36 0 01-2.37 1.13 2.38 2.38 0 01-2-.64 2.86 2.86 0 01-.84-2 6.17 6.17 0 011.24-4.15 4.85 4.85 0 013.72-2.19 2 2 0 011.62.61 2.89 2.89 0 01.71 1.83.88.88 0 01.24.53 4.36 4.36 0 01-.43 1.57zm-2.55-2.31a2.58 2.58 0 00-2 1.46 4.26 4.26 0 00-.68 2.47c.06.81.35 1.19.94 1.15a2.23 2.23 0 001.79-1.22 5.12 5.12 0 00.66-2.37 1.6 1.6 0 01.13-.49c-.09-.69-.37-1.03-.84-1z"/></g><path d="M558.67 65.25c-13.17-1.25-26.2-3.77-39.2-6.25-7-1.33-14.67-3.13-18.55-8.81-4.7-6.9-1-16.63 5.85-21.46 7.68-5.42 17.41-6 26.65-6.27 3.5-.11 7-.36 10.5-.32 2.3 0 4.61-.1 6.92.1a260.35 260.35 0 0137 5.53c4.88 1.14 9.82 2.49 14 5.21s7.41 7.07 7.49 11.82c.07 3.92-2 7.61-4.77 10.5-4.77 5-11.51 8.09-18.5 9.54s-14.25 1.39-21.41.91c-2.05-.14-4.02-.31-5.98-.5z" fill="#fff"/><path d="M638.63 100.66c-14.22-1.42-28.32-4.06-42.37-6.69-7.52-1.41-15.88-3.3-20.11-9-5.16-7-1.28-16.66 6.07-21.43 8.23-5.34 18.73-5.78 28.7-6 3.78-.08 7.55-.29 11.33-.21 2.48 0 5-.05 7.47.18a305.7 305.7 0 0139.95 5.93c5.28 1.2 10.62 2.61 15.12 5.38S692.87 76 693 80.71c.11 3.93-2.11 7.6-5 10.47-5.1 5-12.34 8-19.87 9.35s-15.36 1.24-23.1.68c-2.15-.15-4.28-.34-6.4-.55z" fill="#fff"/><path d="M571.74 124.69c-12.47-1.18-24.81-3.58-37.11-6-6.58-1.28-13.89-3-17.52-8.67-4.41-6.86-.84-16.6 5.69-21.48 7.33-5.47 16.55-6.08 25.32-6.45 3.32-.14 6.63-.41 10-.4 2.18 0 4.37-.13 6.56.05a236.15 236.15 0 0135 5.26c4.61 1.11 9.28 2.42 13.19 5.11s7 7 7 11.75c0 3.92-2 7.62-4.6 10.53-4.56 5-11 8.16-17.6 9.66s-13.52 1.49-20.31 1.06c-1.89-.11-3.76-.24-5.62-.42z" fill="#fff"/><path d="M522.52 48.06A9.43 9.43 0 01520 49a9.32 9.32 0 01-2.3.31 4 4 0 01-3.43-1.94 7.43 7.43 0 01-.84-4.14 14.82 14.82 0 012.09-6.91c1.46-2.46 3.16-3.65 5.05-3.57a3.18 3.18 0 011.58.61 5.24 5.24 0 011.21 1.18 1.93 1.93 0 01.45 1.11 1 1 0 01-.32.7 1.08 1.08 0 01-.76.27c-.27 0-.62-.3-1.09-.89a2.11 2.11 0 00-1.45-.9c-1 0-2 .91-3.08 2.83a13.24 13.24 0 00-1.7 5.86c-.11 2.43.69 3.66 2.4 3.74a7.65 7.65 0 003.82-1.08 3.07 3.07 0 01.88-.39 1 1 0 01.66.37 1 1 0 01.3.74c.01.42-.33.81-.95 1.16zM531.29 49.94a4 4 0 01-3.68-2.49h-.68a4.28 4.28 0 01-1.71-.43c-.76-.35-1.1-.78-1.08-1.27s.34-.93.92-.91a1.49 1.49 0 01.66.37 1.63 1.63 0 00.91.38h.52a5.55 5.55 0 010-.93 6 6 0 01.95-3 2.77 2.77 0 012.46-1.57 2.37 2.37 0 011.61.89 2.5 2.5 0 01.73 1.81q-.11 2.51-3.57 4.18A2.28 2.28 0 00531 48a7.31 7.31 0 00.86 0 8.47 8.47 0 01.86 0 .92.92 0 01.62.32 1.07 1.07 0 01.24.68c.01.66-.78 1-2.29.94zm-.43-7.67a.9.9 0 00-.53-.25c-.4 0-.73.3-1 1a4.7 4.7 0 00-.39 1.74v.41c1.39-.82 2.1-1.6 2.14-2.35a.89.89 0 00-.22-.55zM542 42.73a2.24 2.24 0 01-1.23.33l-.42-.15c-1.87.82-3.08 2.6-3.6 5.33q-.22 1.07-.33 1.41c-.16.39-.39.59-.66.58a1.08 1.08 0 01-.75-.47 1.52 1.52 0 01-.27-1 5.26 5.26 0 01.22-.89 8 8 0 00.25-1.64c0-.54 0-1.27-.06-2.15a4 4 0 01-.51-2.37 1.38 1.38 0 01.23-.67.57.57 0 01.47-.27 1.15 1.15 0 011 .74 8.91 8.91 0 01.39 2.05c1.46-2 3.08-3 4.84-2.9a1.19 1.19 0 01.82.44 1.29 1.29 0 01.34.9c0 .27-.24.53-.73.73zM550.21 42.89a.76.76 0 01-.6.31 1.09 1.09 0 01-.82-.35c-.16 0-.54 0-1.17-.07l-1.26-.08a215.8 215.8 0 00-.89 3.23 20.63 20.63 0 00-.6 3.39.91.91 0 01.3.8.93.93 0 01-.34.62 1 1 0 01-.66.24c-.75 0-1.08-.68-1-1.9a18.08 18.08 0 01.57-3.2l.82-3.22c-.7 0-1-.36-1-1a.79.79 0 01.44-.79 2.41 2.41 0 011.06-.12c.69-2.36 1.27-4.18 1.74-5.52a.81.81 0 01.84-.68c.58 0 .89.37.92 1.05-.15.47-.36 1-.59 1.63-.31.91-.65 2.09-1 3.56l1.66.12c1.3.13 1.94.54 1.91 1.26a1.25 1.25 0 01-.33.72zM557.55 45.65a8.49 8.49 0 00-.57 2.73 5.32 5.32 0 00.1 1.2c.07.55.12.82.12.89a.9.9 0 01-.32.61 1.18 1.18 0 01-.66.2c-.66 0-1-.92-1-2.64-1.32 1.21-2.47 1.79-3.48 1.74a2.14 2.14 0 01-1.66-.9 2.66 2.66 0 01-.64-1.88c.06-1.31.89-2.67 2.51-4.05s2.93-2 4.17-1.94a1.5 1.5 0 01.86.4 1 1 0 01.39.79 1.44 1.44 0 01-.05.31 4.62 4.62 0 01.16 1.39 1.09 1.09 0 01.26.66 1.6 1.6 0 01-.19.49zm-2.24-2.08c-.42 0-1.19.46-2.27 1.41s-1.8 1.93-1.83 2.65c0 .56.19.84.66.86a3.38 3.38 0 002.39-1.43 4.58 4.58 0 001.42-2.64c.03-.54-.1-.84-.37-.85zM561.64 44.88a21.51 21.51 0 00-.95 4.61 1.37 1.37 0 01.41 1 .59.59 0 01-.25.37.56.56 0 01-.41.18c-1 0-1.49-1-1.41-2.84a27.76 27.76 0 011.13-5.09 4.19 4.19 0 010-.55.8.8 0 01.55-.7c1 .05 1.47.54 1.43 1.49zM562.7 36a2 2 0 01-.38-.11c-.64-.26-.93-.86-.89-1.8 0-.47.35-.8 1-1 .77.13 1.13.64 1.09 1.59s-.32 1.38-.82 1.32zM571 50.85c-.06.4-.25.62-.57.61a1.06 1.06 0 01-.81-.45 1.58 1.58 0 01-.3-1s.07-.45.19-1.28l.47-2.87a15.55 15.55 0 00-4.12 3.84c-.17.26-.32.55-.47.81s-.47.55-.7.54c-.94 0-1.34-1.39-1.22-4.07a20.71 20.71 0 011-5.33c.11-.32.27-.49.54-.48a1.16 1.16 0 01.84.42 1.63 1.63 0 01.3 1c-.14.44-.27.93-.41 1.47a19.36 19.36 0 00-.49 3.45 18.6 18.6 0 015.34-4.21 1.63 1.63 0 01.86.38 1 1 0 01.39.85c-.03 1.05-.31 3.16-.84 6.32zM580.24 44.21a.76.76 0 01-.6.31 1.12 1.12 0 01-.82-.35c-.16 0-.54 0-1.17-.07l-1.26-.1c-.48 1.74-.78 2.81-.89 3.23a21.64 21.64 0 00-.6 3.38 1 1 0 01.31.81 1 1 0 01-.35.62 1 1 0 01-.66.24c-.75 0-1.08-.68-1-1.9a18.91 18.91 0 01.57-3.2l.82-3.22c-.7 0-1-.36-1-1a.83.83 0 01.44-.8 2.69 2.69 0 011.07-.11c.69-2.36 1.26-4.18 1.73-5.52a.82.82 0 01.84-.68c.59 0 .89.37.93 1-.16.47-.36 1-.6 1.63-.31.91-.65 2.09-1 3.56l1.66.12c1.31.12 1.94.54 1.91 1.26a1.25 1.25 0 01-.33.79zM585.83 55a8.15 8.15 0 01-5.47 1.55c-1.39-.07-2.07-.52-2-1.34a.8.8 0 01.9-.86l1.21.19c3.45.11 5.5-1.32 6.17-4.29a13.53 13.53 0 00.27-2.18q-1.89 2.43-3.62 2.35a2 2 0 01-1.64-.8 2.64 2.64 0 01-.55-1.85 20.42 20.42 0 01.25-2.11 19.17 19.17 0 00.28-2.06 3.87 3.87 0 00-.09-.59 2 2 0 01-.09-.6c0-.56.36-.84 1-.81.36 0 .64.28.82.78a3.41 3.41 0 01.21 1.46c0 .2-.13.83-.31 1.86a18.23 18.23 0 00-.29 2.08c0 .41.13.62.49.63a2.14 2.14 0 001.6-.94 20.12 20.12 0 001.75-2.47c.36-.57.72-.87 1.08-.86.69 0 1 .86 1 2.44l-.07 1.51c-.19 3.28-1.15 5.58-2.9 6.91zM596.52 81.06A9.43 9.43 0 01594 82a9.32 9.32 0 01-2.3.31 4 4 0 01-3.43-1.94 7.43 7.43 0 01-.84-4.14 14.82 14.82 0 012.09-6.91c1.46-2.46 3.16-3.65 5.05-3.57a3.18 3.18 0 011.58.61 5 5 0 011.21 1.18 1.93 1.93 0 01.45 1.11 1 1 0 01-.32.7 1.08 1.08 0 01-.76.27c-.27 0-.62-.3-1.09-.89a2.11 2.11 0 00-1.45-.9c-1 0-2 .91-3.08 2.83a13.24 13.24 0 00-1.7 5.86c-.11 2.43.69 3.66 2.41 3.74a7.64 7.64 0 003.81-1.08 3.33 3.33 0 01.88-.39 1 1 0 01.66.37 1.07 1.07 0 01.31.74c0 .42-.34.81-.96 1.16zM604.45 81.07a3.27 3.27 0 01-2.82 1.41 3.07 3.07 0 01-2.32-1.2 4.28 4.28 0 01-.79-2.88 5.74 5.74 0 01.77-2.72 4.11 4.11 0 011.94-1.93 6.12 6.12 0 00.76-.35 1.24 1.24 0 01.66-.26 2.89 2.89 0 01.54.16 4 4 0 011.89 1.55 4.11 4.11 0 01.64 2.44 6.51 6.51 0 01-1.27 3.78zm-1.1-5.4a1.6 1.6 0 01-.87-.24 1.84 1.84 0 00-1.6 1 4 4 0 00-.61 2 2.36 2.36 0 00.37 1.44 1.22 1.22 0 001.05.68 1.83 1.83 0 001.51-1 3.93 3.93 0 00.73-2.09c.07-.86-.16-1.46-.58-1.79zM614.58 82.51c-.07.4-.26.62-.57.61a1.06 1.06 0 01-.82-.44 1.55 1.55 0 01-.29-1s.06-.45.19-1.28l.46-2.87a15.7 15.7 0 00-4.12 3.84c-.17.27-.31.55-.46.82s-.48.54-.7.53c-.95 0-1.34-1.39-1.22-4.07a19.89 19.89 0 011-5.33c.1-.31.27-.49.54-.47a1.13 1.13 0 01.84.42 1.51 1.51 0 01.29 1c-.13.45-.26.94-.4 1.47a18.59 18.59 0 00-.49 3.46 18.31 18.31 0 015.31-4.2 1.71 1.71 0 01.86.38 1.06 1.06 0 01.4.85c-.05 1.01-.32 3.12-.82 6.28zM626.42 68.22a4.84 4.84 0 00-3.43 2 16 16 0 00-2.49 6.46c1.68-.33 2.93-.55 3.77-.67a10.6 10.6 0 011.43-.12.84.84 0 01.91 1 1 1 0 01-.49.83 1.38 1.38 0 01-1 .3 1.19 1.19 0 01-.41-.08c-.63.08-2.13.35-4.55.79-.58 4-1.33 6.74-2.26 8.32-.39.66-.76 1-1.08 1a1.08 1.08 0 01-.75-.37 1.28 1.28 0 01-.28-.87 1.4 1.4 0 01.61-1c.61-.47 1.25-2.72 1.88-6.76a7.39 7.39 0 01-1.21.13.72.72 0 01-.55-.34.9.9 0 01-.21-.66c0-.61.26-.92.76-.9a8.25 8.25 0 001.52-.2q1.07-6.69 4.43-9.42a6.28 6.28 0 011.55-.84 3.85 3.85 0 011.53-.4c.72 0 1.09.29 1.07.77.01.59-.25.96-.75 1.03zM629.37 77.61a21.39 21.39 0 00-1 4.61 1.35 1.35 0 01.41 1 .59.59 0 01-.25.37.59.59 0 01-.41.19c-1 0-1.49-1-1.41-2.84a27.64 27.64 0 011.13-5.1 4 4 0 010-.54.8.8 0 01.55-.7c1 0 1.47.54 1.43 1.48zm1.06-8.85a1.13 1.13 0 01-.38-.11c-.64-.25-.93-.85-.89-1.8 0-.47.35-.79 1-1 .77.12 1.13.63 1.09 1.58s-.32 1.35-.82 1.33zM639.47 69.25a18.74 18.74 0 00-.49 2.87c0 .35-.07.62-.08.76a1.22 1.22 0 01-.39.64c-.23 2.11-.35 3.8-.4 5a35.43 35.43 0 00.15 5.85c.06.63.11 1 .11 1.09a.83.83 0 01-.3.59.94.94 0 01-.62.25c-.45 0-.71-.35-.77-.94s-.17-1.75-.31-3.74a5.12 5.12 0 01-1.54 1.74 3.32 3.32 0 01-2 .79 2.29 2.29 0 01-1.79-.82 2.84 2.84 0 01-.54-2 7 7 0 011.79-3.83c1.12-1.41 2.15-2.11 3.09-2.07a2.08 2.08 0 011.19.68 55.07 55.07 0 011.53-8.62.79.79 0 01.89-.64c.54 0 .8.33.77.91a12.17 12.17 0 01-.29 1.49zm-4.13 8.21a.45.45 0 01-.16 0c-.36 0-1.07.63-2.09 1.9a3.66 3.66 0 00-1 2.06c0 .56.16.84.57.86a2.12 2.12 0 001.5-.73 5.85 5.85 0 001.1-1.44c.15-.31.35-.77.6-1.37a2.08 2.08 0 01-.52-1.28zM646.44 84.75a4 4 0 01-3.68-2.49h-.68a4.38 4.38 0 01-1.72-.44c-.75-.35-1.09-.77-1.07-1.26s.33-.94.92-.91a1.39 1.39 0 01.66.37 1.52 1.52 0 00.91.37h.52a5.59 5.59 0 010-.93 6.12 6.12 0 01.94-3 2.79 2.79 0 012.47-1.56 2.35 2.35 0 011.6.88 2.55 2.55 0 01.74 1.82q-.12 2.5-3.57 4.18a2.31 2.31 0 001.76 1h.86c.38 0 .68-.06.86-.06a.94.94 0 01.61.32 1.13 1.13 0 01.25.69c-.09.73-.82 1.08-2.38 1.02zm-.44-7.68a.88.88 0 00-.53-.24c-.41 0-.74.3-1 1a4.51 4.51 0 00-.39 1.74v.41c1.39-.82 2.1-1.6 2.13-2.35a.86.86 0 00-.21-.56zM657.22 84.38c-.06.41-.25.62-.57.61a1 1 0 01-.81-.44 1.52 1.52 0 01-.3-1s.07-.45.19-1.28l.47-2.87a15.53 15.53 0 00-4.12 3.83c-.17.27-.32.55-.47.82s-.47.54-.7.53c-.94 0-1.34-1.39-1.22-4.07a20.71 20.71 0 011-5.33c.11-.31.27-.48.54-.47a1.1 1.1 0 01.84.42 1.58 1.58 0 01.3 1c-.14.45-.27.94-.41 1.48a19.24 19.24 0 00-.49 3.45 18.26 18.26 0 015.34-4.21 1.61 1.61 0 01.86.37 1.06 1.06 0 01.39.86c-.06 1.03-.34 3.14-.84 6.3zM664.8 84.24a4.19 4.19 0 01-2.64.9 3.28 3.28 0 01-2.33-1 3.21 3.21 0 01-.83-2.45 6.25 6.25 0 011.47-3.79 4.69 4.69 0 013.86-2.05 1.7 1.7 0 01.93.36 1.05 1.05 0 01.37.88 1.18 1.18 0 01-.42.77 1.3 1.3 0 01-.89.34 2.45 2.45 0 01-1.23-.28 5 5 0 00-1.58 1.58 4 4 0 00-.7 2c0 1.12.35 1.68 1.25 1.72a2.25 2.25 0 001.44-.36c.24-.22.52-.43.8-.65a1.35 1.35 0 01.78-.41.86.86 0 01.6.32 1.07 1.07 0 01.24.69c-.02.47-.4.92-1.12 1.43zM673.72 85.94a4 4 0 01-3.72-2.48h-.67a4.47 4.47 0 01-1.72-.44c-.75-.35-1.1-.77-1.08-1.27s.34-.93.92-.9a1.4 1.4 0 01.67.36 1.51 1.51 0 00.9.38h.52a5.44 5.44 0 01-.05-.92 6.1 6.1 0 011-3 2.78 2.78 0 012.46-1.56 2.35 2.35 0 011.61.88 2.5 2.5 0 01.73 1.82c-.07 1.66-1.26 3.06-3.57 4.18a2.31 2.31 0 001.76 1 7.26 7.26 0 00.86 0c.39 0 .68-.06.86 0a.9.9 0 01.62.32 1.07 1.07 0 01.24.69c-.06.66-.83 1-2.34.94zm-.43-7.67a1 1 0 00-.54-.25c-.4 0-.73.31-1 1a4.7 4.7 0 00-.39 1.74v.4c1.39-.81 2.11-1.6 2.14-2.34a.92.92 0 00-.21-.55zM537 106.3a5 5 0 01-4.61 2.14 4.65 4.65 0 01-3.67-1.74 5.8 5.8 0 01-1.22-4.12 10.42 10.42 0 011.04-3.58 18.53 18.53 0 012-3.57 6 6 0 01-1.35.52c-.64 0-.91-.35-.89-1q0-.64 1.5-1.29a14.37 14.37 0 016.3-1.42 3 3 0 011.53.48 1 1 0 01.42.9c0 .54-.35.79-1 .77a1.43 1.43 0 01-.49-.14 3.79 3.79 0 00-.52-.11 12.55 12.55 0 00-3.88.57 3.28 3.28 0 01.21.85 1.77 1.77 0 01-.28.71 41.75 41.75 0 00-2.09 3.83c1.82-.42 3.42-.73 4.78-.94a13.53 13.53 0 012.11-.22.82.82 0 01.86 1 1.5 1.5 0 01-.86 1.18 2.56 2.56 0 01-1.13.54 1.25 1.25 0 01-1-.52c-2.39.42-4.24.79-5.52 1.09a3.92 3.92 0 00-.07.68 3.54 3.54 0 00.79 2.61 3.23 3.23 0 002.43 1.07 3.17 3.17 0 001.87-.41 5.62 5.62 0 001.4-1.39 1.17 1.17 0 011-.63 1 1 0 01.57.32.91.91 0 01.24.6 2.5 2.5 0 01-.47 1.22zM547.25 102.5c-.71.56-1.69 1.31-2.94 2.2.39.74.75 1.41 1 2a7.48 7.48 0 01.57 1.59 1 1 0 01-1 .86 1 1 0 01-.9-.63c-.36-.92-.8-1.82-1.27-2.74a32.1 32.1 0 00-3.17 2.61 1.18 1.18 0 01-.78.38.85.85 0 01-.9-1c0-.36.4-.89 1.17-1.56.59-.51 1.48-1.22 2.69-2.11-.13-.21-.32-.47-.53-.77a.78.78 0 01-.42-.29A5.13 5.13 0 01540 102a3.29 3.29 0 01-.58-1.22.94.94 0 011.11-1c.27 0 .68.37 1.22 1.07s1 1.44 1.55 2.23c.63-.47 1.51-1.08 2.65-1.89a2.19 2.19 0 01.81-.42 1 1 0 01.67.3.84.84 0 01.28.65 1.1 1.1 0 01-.46.78zM554.16 109.85a4 4 0 01-3.68-2.49h-.68a4.28 4.28 0 01-1.71-.43c-.76-.35-1.1-.77-1.08-1.27s.34-.93.92-.91a1.49 1.49 0 01.66.37 1.56 1.56 0 00.91.38h.52a5.44 5.44 0 010-.92 6 6 0 01.95-3 2.74 2.74 0 012.46-1.56 2.35 2.35 0 011.61.88 2.54 2.54 0 01.73 1.82c-.07 1.66-1.26 3.06-3.57 4.17a2.28 2.28 0 001.76 1 7.31 7.31 0 00.86 0 8.47 8.47 0 01.86 0 .94.94 0 01.62.32 1.07 1.07 0 01.24.69c-.08.67-.87 1.02-2.38.95zm-.43-7.67a1 1 0 00-.53-.25c-.4 0-.73.31-1 1a4.79 4.79 0 00-.39 1.75v.4c1.39-.82 2.1-1.6 2.14-2.34a.94.94 0 00-.22-.56zM563 108.93a4.19 4.19 0 01-2.64.9 3.24 3.24 0 01-2.32-1 3.19 3.19 0 01-.84-2.45 6.28 6.28 0 011.47-3.8 4.7 4.7 0 013.86-2 1.56 1.56 0 01.93.36 1 1 0 01.37.87 1.18 1.18 0 01-.42.77 1.27 1.27 0 01-.89.35 2.56 2.56 0 01-1.23-.28 5 5 0 00-1.58 1.58 3.91 3.91 0 00-.7 2c-.05 1.13.35 1.69 1.25 1.73a2.25 2.25 0 001.44-.37c.24-.21.52-.43.8-.64a1.38 1.38 0 01.78-.42.86.86 0 01.6.32 1.07 1.07 0 01.24.69c-.07.46-.45.88-1.12 1.39zM574.59 103.25a17.85 17.85 0 00-.7 2.61 17.67 17.67 0 00-.39 2.22 3.44 3.44 0 000 .68v.54a1.44 1.44 0 01-.31.87.83.83 0 01-.76.37 1.32 1.32 0 01-.71-.25.68.68 0 01-.31-.63 1 1 0 01.18-.51c0-.38.15-1.3.39-2.78-2.32 2.45-4.06 3.64-5.26 3.58a2 2 0 01-1.29-.46 1.49 1.49 0 01-.48-1.26 14.47 14.47 0 01.57-2.71 24.65 24.65 0 00.62-2.9v-.25a1.08 1.08 0 01.29-.92.69.69 0 01.58-.31c.61 0 .9.54.86 1.48a16.78 16.78 0 01-.52 2.58 17.21 17.21 0 00-.54 2.52.25.25 0 00.26.29c1.06 0 3.09-1.94 6.11-6a.92.92 0 01.74-.44c.54 0 .8.35.77 1a2.93 2.93 0 01-.1.68zM582.78 103.23a.76.76 0 01-.6.31 1.13 1.13 0 01-.82-.35c-.16 0-.54 0-1.17-.07s-1-.07-1.26-.08a215.8 215.8 0 00-.89 3.23 20.53 20.53 0 00-.6 3.38.95.95 0 010 1.43 1 1 0 01-.66.24c-.75 0-1.08-.68-1-1.9a18.08 18.08 0 01.57-3.2l.82-3.22c-.7 0-1-.36-1-1a.79.79 0 01.44-.79 2.41 2.41 0 011.06-.12c.69-2.36 1.27-4.18 1.74-5.52a.81.81 0 01.84-.68c.58 0 .89.37.92 1.05-.15.47-.36 1-.59 1.62-.31.92-.65 2.1-1 3.57l1.66.12c1.3.12 1.94.54 1.91 1.26a1.25 1.25 0 01-.37.72zM585.76 104.85a22.14 22.14 0 00-1 4.61 1.33 1.33 0 01.41 1 .6.6 0 01-.24.38.56.56 0 01-.42.18c-1 0-1.49-1-1.41-2.84a27.42 27.42 0 011.13-5.09 3.62 3.62 0 010-.55.8.8 0 01.55-.7c1 0 1.46.54 1.42 1.49zm1.07-8.85a1.17 1.17 0 01-.38-.1c-.65-.26-.93-.86-.89-1.8 0-.48.35-.8 1-1 .76.13 1.12.64 1.08 1.58s-.32 1.32-.81 1.32zM593.24 109.74a3.28 3.28 0 01-2.81 1.41 3 3 0 01-2.32-1.21 4.22 4.22 0 01-.8-2.88 5.89 5.89 0 01.77-2.72 4.23 4.23 0 011.94-1.92 7.07 7.07 0 00.76-.35 1.43 1.43 0 01.67-.27l.53.16a4.09 4.09 0 011.9 1.55 4.23 4.23 0 01.63 2.45 6.46 6.46 0 01-1.27 3.78zm-1.09-5.4a1.6 1.6 0 01-.87-.24 1.82 1.82 0 00-1.61 1 4.1 4.1 0 00-.6 2 2.35 2.35 0 00.36 1.44 1.23 1.23 0 001.06.68 1.87 1.87 0 001.51-1 4 4 0 00.72-2.09 2.12 2.12 0 00-.57-1.79zM603.37 111.18c-.06.4-.25.62-.57.6a1 1 0 01-.81-.44 1.46 1.46 0 01-.3-1s.07-.45.19-1.28l.47-2.87a15.39 15.39 0 00-4.12 3.84c-.17.26-.32.55-.47.81s-.47.55-.7.54c-.94 0-1.34-1.39-1.22-4.07a20.29 20.29 0 011-5.33c.1-.32.27-.49.54-.48a1.16 1.16 0 01.84.42 1.63 1.63 0 01.3 1c-.14.44-.27.93-.41 1.47a18.49 18.49 0 00-.49 3.45 18.56 18.56 0 015.33-4.21 1.63 1.63 0 01.87.38 1.06 1.06 0 01.39.85c-.07 1.05-.34 3.14-.84 6.32z" fill="#1d2d35"/><path d="M13.44 233c217.9 0 218.67-198.5 337.67-198.5S477.52 233 693 233" fill="none" stroke="#1d2d35" stroke-linecap="round" stroke-linejoin="round" stroke-width="3"/><path d="M693 243.48H13.44" fill="none" stroke="#fff" stroke-linecap="round" stroke-linejoin="round" stroke-width="2"/><path d="M132.75 259.31a.77.77 0 01-.58.36.52.52 0 01-.26-.05h-.26c-1.64 0-3.68.12-6.1.31a43.71 43.71 0 00-1.44 6.15 26.35 26.35 0 006-1c.17 0 .45-.14.89-.28a.82.82 0 01.93.93c0 .58-.41 1-1.17 1.23a24.74 24.74 0 01-6.94 1.15 35.46 35.46 0 00-.26 4.37 12.64 12.64 0 00.12 1.75c0 .74.09 1.15.09 1.25a.86.86 0 01-.29.62 1.09 1.09 0 01-.67.29.9.9 0 01-.79-.53 9 9 0 01-.82-4.34c0-.22.17-.44.51-.68a47.13 47.13 0 01.84-7c.09-.58.38-1.73.86-3.41-.77-.15-1.15-.53-1.15-1.13a1 1 0 01.74-1 10.34 10.34 0 011.3-.22 1.12 1.12 0 01.65-.28l.45.12 2.67-.17c1.75-.1 2.81-.15 3.17-.15 1.2 0 1.8.36 1.8 1.06a1.16 1.16 0 01-.29.65zM135.57 268.48a23.33 23.33 0 00-.79 4.94 1.43 1.43 0 01.48 1.08.58.58 0 01-.24.41.6.6 0 01-.43.22c-1.11 0-1.63-1-1.63-2.95a29.09 29.09 0 011-5.48 4.48 4.48 0 01-.08-.57.85.85 0 01.56-.77c1 0 1.58.5 1.58 1.51zm.72-9.46a1.37 1.37 0 01-.41-.09c-.69-.24-1-.87-1-1.87 0-.51.34-.87 1-1.11.82.1 1.22.63 1.22 1.63s-.28 1.42-.81 1.42zM144.94 268.89a6.53 6.53 0 00-.24 1.89c-.22 4.9-2.31 7.92-6.24 9.08a5.71 5.71 0 01-1.37.19c-.67 0-1-.36-1-1.06a1.12 1.12 0 01.41-.86 1.25 1.25 0 01.89-.41 1.29 1.29 0 01.55.1c2.83-.48 4.42-2.33 4.75-5.5a3.56 3.56 0 01-2.59 1 2.58 2.58 0 01-2-.81 3.07 3.07 0 01-.74-2.21 6.54 6.54 0 011.6-4.32 5.17 5.17 0 014.11-2.07 2.16 2.16 0 011.68.77 3.09 3.09 0 01.62 2 1 1 0 01.22.58 4.77 4.77 0 01-.65 1.63zm-2.55-2.64a2.74 2.74 0 00-2.2 1.41 4.51 4.51 0 00-.89 2.57c0 .87.29 1.3.91 1.3a2.39 2.39 0 002-1.18 5.51 5.51 0 00.87-2.47 2 2 0 01.16-.5c-.05-.75-.34-1.13-.85-1.13zM156.41 267.3a19.26 19.26 0 00-.62 2.81 17.49 17.49 0 00-.31 2.38 4.31 4.31 0 00.07.72 4.85 4.85 0 01.07.57 1.57 1.57 0 01-.29.94.89.89 0 01-.79.43 1.35 1.35 0 01-.77-.24.7.7 0 01-.36-.65 1 1 0 01.17-.55c0-.41.1-1.39.29-3-2.35 2.71-4.15 4.05-5.43 4.05a2.14 2.14 0 01-1.39-.43 1.59 1.59 0 01-.57-1.32 15.34 15.34 0 01.48-2.9 28 28 0 00.52-3.12v-.27a1.23 1.23 0 010-.26 1.17 1.17 0 01.29-.72.72.72 0 01.6-.36c.65 0 1 .53 1 1.53a17.28 17.28 0 01-.43 2.76 17.76 17.76 0 00-.46 2.72c0 .19.1.28.29.28 1.13 0 3.19-2.2 6.22-6.64a1 1 0 01.77-.51c.57 0 .86.34.86 1a3 3 0 01-.21.78zM165.59 267.11a2.51 2.51 0 01-1.3.41l-.45-.14c-2 1-3.15 2.9-3.58 5.83a14.47 14.47 0 01-.29 1.51c-.14.43-.38.65-.67.65a1.13 1.13 0 01-.82-.46 1.63 1.63 0 01-.33-1.05 6.43 6.43 0 01.19-1 7.91 7.91 0 00.19-1.76c0-.57-.07-1.34-.17-2.28a4.23 4.23 0 01-.64-2.49 1.42 1.42 0 01.21-.72.59.59 0 01.48-.31 1.21 1.21 0 011.08.74 8.75 8.75 0 01.51 2.16c1.46-2.21 3.14-3.31 5-3.31a1.23 1.23 0 01.89.43 1.36 1.36 0 01.41.94c.01.32-.23.61-.71.85zM169.14 268.48a23.41 23.41 0 00-.8 4.94 1.4 1.4 0 01.48 1.08.58.58 0 01-.24.41.58.58 0 01-.43.22c-1.1 0-1.63-1-1.63-2.95a29.09 29.09 0 011-5.48 3.89 3.89 0 01-.07-.57.85.85 0 01.55-.77c1.06 0 1.58.5 1.58 1.51zm.72-9.46a1.26 1.26 0 01-.41-.09c-.7-.24-1-.87-1-1.87 0-.51.33-.87 1-1.11.82.1 1.23.63 1.23 1.63s-.3 1.42-.82 1.42zM179.39 274.38c0 .44-.24.68-.57.68a1.11 1.11 0 01-.89-.44 1.62 1.62 0 01-.36-1l.14-1.37.36-3.07a16.63 16.63 0 00-4.2 4.27c-.17.29-.31.6-.45.89s-.48.6-.73.6c-1 0-1.48-1.41-1.48-4.27a21.58 21.58 0 01.79-5.71c.09-.34.26-.53.55-.53a1.18 1.18 0 01.91.41 1.64 1.64 0 01.36 1c-.12.48-.24 1-.36 1.58a20 20 0 00-.36 3.7 19.56 19.56 0 015.48-4.73 1.85 1.85 0 01.93.36 1.13 1.13 0 01.46.89c.03 1.1-.19 3.36-.58 6.74zM188.84 268.89a6.53 6.53 0 00-.24 1.89c-.22 4.9-2.31 7.92-6.24 9.08a5.71 5.71 0 01-1.37.19c-.67 0-1-.36-1-1.06a1.12 1.12 0 01.41-.86 1.25 1.25 0 01.89-.41 1.29 1.29 0 01.55.1c2.83-.48 4.42-2.33 4.75-5.5a3.56 3.56 0 01-2.59 1 2.57 2.57 0 01-2-.81 3.07 3.07 0 01-.74-2.21 6.54 6.54 0 011.6-4.32 5.17 5.17 0 014.11-2.07 2.16 2.16 0 011.68.77 3.09 3.09 0 01.62 2 1 1 0 01.22.58 4.77 4.77 0 01-.65 1.63zm-2.55-2.64a2.77 2.77 0 00-2.21 1.41 4.57 4.57 0 00-.88 2.57c0 .87.29 1.3.91 1.3a2.39 2.39 0 002-1.18 5.51 5.51 0 00.87-2.47 2 2 0 01.16-.5c-.05-.75-.34-1.13-.85-1.13zM205.42 266.9a.82.82 0 01-.62.36 1.21 1.21 0 01-.89-.34h-2.59c-.44 1.87-.7 3-.8 3.48a23.46 23.46 0 00-.52 3.6 1 1 0 010 1.51 1.12 1.12 0 01-.7.29c-.79 0-1.17-.68-1.17-2a19.46 19.46 0 01.45-3.43l.72-3.46c-.74 0-1.1-.34-1.1-1a.88.88 0 01.43-.87 2.87 2.87 0 011.13-.16c.62-2.55 1.15-4.52 1.58-6 .15-.5.44-.76.87-.76.62 0 1 .36 1 1.08-.14.5-.34 1.08-.55 1.75-.29 1-.6 2.25-.94 3.84l1.78.05c1.39.07 2.09.48 2.09 1.24a1.38 1.38 0 01-.17.82zM214.51 275.42c-1 0-1.54-1.13-1.63-3.44l-.12-2.9a15.3 15.3 0 00-4.18 4.1c-.17.39-.34.77-.53 1.13-.29.53-.5.79-.7.79a1.2 1.2 0 01-.93-.43 1.61 1.61 0 01-.36-1V273v-.77a35.39 35.39 0 01.63-6.77l1.39-7.65c.14-.79.41-1.2.79-1.2a.93.93 0 01.79.5 1.68 1.68 0 01.37 1c0 .12-.08.5-.2 1.18s-.36 1.72-.6 3.12l-.72 3.76c-.12.63-.31 2-.57 4.25a17.41 17.41 0 012.78-2.52 6.94 6.94 0 012.76-1.65 1.12 1.12 0 01.89.45 1.87 1.87 0 01.38 1.08c0 .07 0 .41-.09 1s0 1 0 1.13a24.11 24.11 0 00.22 3.19c0 .43.12.94.19 1.56-.13.52-.27.76-.56.76zM219.16 268.48a22.7 22.7 0 00-.79 4.94 1.43 1.43 0 01.48 1.08.85.85 0 01-.68.63c-1.1 0-1.63-1-1.63-2.95a29.09 29.09 0 011-5.48 3.89 3.89 0 01-.07-.57.85.85 0 01.55-.77c1.06 0 1.59.5 1.59 1.51zm.72-9.46a1.31 1.31 0 01-.41-.09c-.7-.24-1-.87-1-1.87 0-.51.33-.87 1-1.11.81.1 1.22.63 1.22 1.63s-.28 1.42-.81 1.42zM229.41 274.38c0 .44-.24.68-.57.68a1.11 1.11 0 01-.89-.44 1.62 1.62 0 01-.36-1s0-.48.14-1.37l.36-3.07a16.63 16.63 0 00-4.2 4.27c-.16.29-.31.6-.45.89s-.48.6-.72.6c-1 0-1.49-1.41-1.49-4.27a21.58 21.58 0 01.79-5.71c.1-.34.26-.53.55-.53a1.16 1.16 0 01.91.41 1.59 1.59 0 01.37 1c-.12.48-.25 1-.37 1.58a20.86 20.86 0 00-.36 3.7 19.56 19.56 0 015.48-4.73 1.82 1.82 0 01.93.36 1.13 1.13 0 01.46.89c.01 1.1-.19 3.36-.58 6.74zM238.86 268.89a6.53 6.53 0 00-.24 1.89q-.33 7.35-6.24 9.08a5.71 5.71 0 01-1.37.19c-.67 0-1-.36-1-1.06a1.12 1.12 0 01.41-.86 1.28 1.28 0 011.44-.31c2.83-.48 4.42-2.33 4.75-5.5a3.56 3.56 0 01-2.59 1 2.58 2.58 0 01-2-.81 3.11 3.11 0 01-.74-2.21 6.54 6.54 0 011.6-4.32 5.17 5.17 0 014.11-2.07 2.16 2.16 0 011.68.77 3.09 3.09 0 01.62 2 1 1 0 01.22.58 4.77 4.77 0 01-.65 1.63zm-2.54-2.64a2.76 2.76 0 00-2.21 1.41 4.51 4.51 0 00-.89 2.57c0 .87.29 1.3.91 1.3a2.39 2.39 0 002-1.18 5.39 5.39 0 00.87-2.47 1.78 1.78 0 01.17-.5c-.06-.75-.35-1.13-.85-1.13zM246.61 266.46a.85.85 0 01-.65.27 3.42 3.42 0 01-.62-.05h-.65c-.62 0-.94.24-.94.69a12.22 12.22 0 00.89 2.67 10.87 10.87 0 01.89 3.36 2.13 2.13 0 01-.84 1.7 4.14 4.14 0 01-2.52.7c-1.73 0-2.57-.36-2.57-1a1.15 1.15 0 01.27-.76.67.67 0 01.55-.39c.05 0 .31.05.79.1a8.32 8.32 0 001.18.09c.79 0 1.2-.26 1.2-.84a12.46 12.46 0 00-.89-2.68 9.84 9.84 0 01-.87-3.2 2.28 2.28 0 011.69-2.28 1.52 1.52 0 011.41-.6q1.66 0 1.8 1.08a1.27 1.27 0 01.15.56.8.8 0 01-.27.58zM261 273.33a3.49 3.49 0 01-2.92 1.63 3.22 3.22 0 01-2.52-1.18 4.45 4.45 0 01-1-3 6.21 6.21 0 01.7-2.93 4.34 4.34 0 012-2.13c.19-.08.45-.22.79-.41a1.43 1.43 0 01.69-.31 3.48 3.48 0 01.58.14 4.34 4.34 0 012.09 1.56 4.43 4.43 0 01.79 2.57 7 7 0 01-1.2 4.06zm-1.41-5.69a1.74 1.74 0 01-.94-.22 1.92 1.92 0 00-1.65 1.18 4.2 4.2 0 00-.56 2.16 2.5 2.5 0 00.46 1.51 1.29 1.29 0 001.15.67 1.94 1.94 0 001.56-1.08 4.2 4.2 0 00.67-2.25c.03-1.01-.21-1.68-.66-1.97zM273.27 267.3a18.89 18.89 0 00-.63 2.81 19.4 19.4 0 00-.31 2.38 5.73 5.73 0 00.07.72c.05.31.08.5.08.57a1.57 1.57 0 01-.29.94.9.9 0 01-.79.43 1.33 1.33 0 01-.77-.24.7.7 0 01-.36-.65 1 1 0 01.17-.55c0-.41.09-1.39.28-3-2.35 2.71-4.15 4.05-5.42 4.05a2.12 2.12 0 01-1.39-.43 1.57 1.57 0 01-.58-1.32 16.25 16.25 0 01.48-2.9 26.59 26.59 0 00.53-3.12v-.27a.83.83 0 010-.26 1.17 1.17 0 01.29-.72.72.72 0 01.6-.36c.65 0 1 .53 1 1.53a18.58 18.58 0 01-.43 2.76 16.51 16.51 0 00-.46 2.72c0 .19.1.28.29.28 1.13 0 3.19-2.2 6.21-6.64a1 1 0 01.77-.51c.58 0 .87.34.87 1a3.6 3.6 0 01-.21.78zM282 266.9a.82.82 0 01-.62.36 1.21 1.21 0 01-.89-.34h-2.59c-.44 1.87-.7 3-.8 3.48a23.46 23.46 0 00-.48 3.63 1 1 0 010 1.51 1.12 1.12 0 01-.7.29c-.79 0-1.17-.68-1.17-2a19.46 19.46 0 01.45-3.43l.72-3.46c-.74 0-1.1-.34-1.1-1a.88.88 0 01.43-.87 2.87 2.87 0 011.13-.16c.62-2.55 1.15-4.52 1.58-6 .15-.5.43-.76.87-.76.62 0 1 .36 1 1.08-.15.5-.34 1.08-.55 1.75-.29 1-.6 2.25-.94 3.84l1.78.05c1.39.07 2.08.48 2.08 1.24a1.36 1.36 0 01-.2.79zM472.4 277.1a1.11 1.11 0 01-.72.31c-.55 0-1.1-.51-1.63-1.47a20.43 20.43 0 01-2-6.5c-.14-.79-.43-3.14-.89-7.08a52.2 52.2 0 00-2.42 7.51c-.15.67-.48 1-1 1a1.73 1.73 0 01-1.2-.7A14.17 14.17 0 01460 266a20.84 20.84 0 01-1.66-4.75 40.14 40.14 0 00-1.15 5.76 48.15 48.15 0 00-.36 5c-.05 1-.34 1.44-.92 1.44s-.86-.48-1.12-1.44a9.39 9.39 0 01-.27-2.47c0-.48.1-1.61.29-3.41.14-1.34.24-2.42.24-3.29v-.74a6.64 6.64 0 010-.72.85.85 0 011-1 1.26 1.26 0 01.65.22 26.3 26.3 0 011.06-2.62.93.93 0 01.93-.55 1 1 0 01.94.84q1.57 6.59 3.77 9.57a39.52 39.52 0 013.38-8.59.87.87 0 01.82-.48 1 1 0 01.91.77 30.16 30.16 0 011.13 5.66c.29 2.45.53 4.11.67 4.95a13.48 13.48 0 001.32 4.34 1.77 1.77 0 01.84 1c.19.5.31.79.31.84a1.2 1.2 0 01-.38.77zM480.85 269.49a9 9 0 00-.48 2.93 6.42 6.42 0 00.17 1.27c.09.57.16.86.16.93a1 1 0 01-.31.68 1.31 1.31 0 01-.7.24c-.69 0-1.1-.94-1.22-2.76-1.34 1.34-2.54 2-3.62 2a2.26 2.26 0 01-1.8-.89 2.76 2.76 0 01-.77-2c0-1.4.81-2.88 2.47-4.42s3-2.26 4.34-2.26a1.57 1.57 0 01.94.39 1.11 1.11 0 01.46.81 1.74 1.74 0 01-.05.34 4.65 4.65 0 01.24 1.46 1.2 1.2 0 01.31.7 2.16 2.16 0 01-.14.58zm-2.47-2.11c-.46 0-1.25.55-2.36 1.6s-1.82 2.14-1.82 2.91c0 .6.24.89.74.89a3.6 3.6 0 002.47-1.64 4.87 4.87 0 001.4-2.88c0-.57-.15-.88-.43-.88zM489.36 266.66a19.11 19.11 0 01-3.8 1.24c.75.87 2.24 2.36 4.45 4.49.76.75 1.15 1.23 1.15 1.47a1 1 0 01-1.11 1.05c-.26 0-.84-.43-1.7-1.32s-2.09-2.13-3.87-4v3.19s.05.65.05.77a1 1 0 01-.31.72 1 1 0 01-.7.29c-.79 0-1.18-.7-1.18-2.09a1.35 1.35 0 01.12-.48 1.15 1.15 0 00.12-.41v-.86-.89c0-.5.07-1.75.27-3.72.19-2.16.36-3.86.55-5.11.07-.48.19-1.08.34-1.8 0-.39.11-1 .23-1.68a.88.88 0 01.94-.84.84.84 0 011 .91c0 .14-.12.94-.34 2.35-.36 2.19-.62 4.23-.76 6.15a16.18 16.18 0 005.78-2.4 1.35 1.35 0 01.58-.32c.74 0 1.13.34 1.13 1s-1.07 1.47-2.94 2.29zM495.34 268.48a23.33 23.33 0 00-.79 4.94 1.43 1.43 0 01.48 1.08.85.85 0 01-.67.63c-1.11 0-1.64-1-1.64-2.95a30 30 0 011-5.48c0-.28-.07-.48-.07-.57a.85.85 0 01.55-.77c1.06 0 1.59.5 1.59 1.51zm.72-9.46a1.31 1.31 0 01-.41-.09c-.69-.24-1-.87-1-1.87 0-.51.34-.87 1-1.11.81.1 1.22.63 1.22 1.63s-.28 1.42-.81 1.42zM505.6 274.38c-.05.44-.24.68-.58.68a1.11 1.11 0 01-.89-.44 1.62 1.62 0 01-.36-1s.05-.48.15-1.37l.36-3.07a16.3 16.3 0 00-4.2 4.27c-.17.29-.32.6-.46.89s-.48.6-.72.6c-1 0-1.49-1.41-1.49-4.27a21.58 21.58 0 01.79-5.71c.1-.34.27-.53.55-.53a1.19 1.19 0 01.92.41 1.64 1.64 0 01.36 1c-.12.48-.24 1-.36 1.58a20 20 0 00-.36 3.7 19.53 19.53 0 015.47-4.73 1.85 1.85 0 01.94.36 1.15 1.15 0 01.45.89c0 1.1-.17 3.36-.57 6.74zM515 268.89a6.53 6.53 0 00-.24 1.89c-.21 4.9-2.3 7.92-6.24 9.08a5.71 5.71 0 01-1.37.19c-.67 0-1-.36-1-1.06a1.14 1.14 0 01.4-.86 1.28 1.28 0 011.44-.31c2.84-.48 4.42-2.33 4.76-5.5a3.58 3.58 0 01-2.6 1 2.58 2.58 0 01-2-.81 3.11 3.11 0 01-.74-2.21A6.55 6.55 0 01509 266a5.15 5.15 0 014.1-2.07 2.16 2.16 0 011.68.77 3.1 3.1 0 01.63 2 1 1 0 01.21.58 4.55 4.55 0 01-.62 1.61zm-2.54-2.64a2.76 2.76 0 00-2.21 1.41 4.51 4.51 0 00-.89 2.57c0 .87.29 1.3.91 1.3a2.42 2.42 0 002-1.18 5.39 5.39 0 00.86-2.47 1.78 1.78 0 01.17-.5c-.01-.75-.3-1.13-.8-1.13zM526.78 268.48a23.41 23.41 0 00-.8 4.94 1.4 1.4 0 01.48 1.08.6.6 0 01-.23.41.62.62 0 01-.44.22c-1.1 0-1.63-1-1.63-2.95a29.09 29.09 0 011-5.48 3.89 3.89 0 01-.07-.57.85.85 0 01.55-.77c1.06 0 1.59.5 1.59 1.51zm.72-9.46a1.31 1.31 0 01-.41-.09c-.7-.24-1-.87-1-1.87 0-.51.33-.87 1-1.11.82.1 1.23.63 1.23 1.63S528 259 527.5 259zM536.25 266.9a.82.82 0 01-.62.36 1.21 1.21 0 01-.89-.34h-2.59c-.44 1.87-.7 3-.8 3.48a23.46 23.46 0 00-.48 3.63 1 1 0 010 1.51 1.12 1.12 0 01-.7.29c-.79 0-1.17-.68-1.17-2a19.46 19.46 0 01.45-3.43l.72-3.46c-.74 0-1.1-.34-1.1-1a.88.88 0 01.43-.87 2.87 2.87 0 011.13-.16c.62-2.55 1.15-4.52 1.58-6 .15-.5.43-.76.87-.76.62 0 1 .36 1 1.08-.15.5-.34 1.08-.55 1.75-.29 1-.6 2.25-.94 3.84l1.78.05c1.39.07 2.08.48 2.08 1.24a1.36 1.36 0 01-.2.79zM552 275.42c-1 0-1.54-1.13-1.63-3.44l-.12-2.9a15.3 15.3 0 00-4.18 4.1c-.17.39-.34.77-.53 1.13-.29.53-.5.79-.69.79a1.22 1.22 0 01-.94-.43 1.61 1.61 0 01-.36-1V273v-.77a35.38 35.38 0 01.62-6.77l1.39-7.65c.15-.79.41-1.2.79-1.2a1 1 0 01.8.5 1.73 1.73 0 01.36 1c0 .12-.08.5-.2 1.18s-.36 1.72-.6 3.12l-.72 3.76c-.12.63-.31 2-.57 4.25a17.41 17.41 0 012.78-2.42 6.94 6.94 0 012.8-1.7 1.12 1.12 0 01.89.45 1.87 1.87 0 01.38 1.08c0 .07 0 .41-.09 1s0 1 0 1.13a24.11 24.11 0 00.22 3.19c0 .43.12.94.19 1.56-.14.47-.28.71-.59.71zM562.1 269.49a9.31 9.31 0 00-.48 2.93 6.42 6.42 0 00.17 1.27c.1.57.17.86.17.93a1 1 0 01-.31.68 1.34 1.34 0 01-.7.24c-.7 0-1.1-.94-1.22-2.76-1.35 1.34-2.55 2-3.63 2a2.29 2.29 0 01-1.8-.89 2.76 2.76 0 01-.77-2c0-1.4.82-2.88 2.48-4.42s3-2.26 4.34-2.26a1.62 1.62 0 01.94.39 1.13 1.13 0 01.45.81 1.21 1.21 0 010 .34 4.38 4.38 0 01.24 1.46 1.16 1.16 0 01.32.7 1.9 1.9 0 01-.2.58zm-2.47-2.11c-.46 0-1.25.55-2.35 1.6s-1.83 2.14-1.83 2.91c0 .6.24.89.75.89a3.6 3.6 0 002.47-1.64 4.91 4.91 0 001.39-2.88c0-.57-.14-.88-.43-.88zM566.22 272.27c.07 1 .12 2 .12 3a15.74 15.74 0 01-.36 3.34c-.22 1-.58 1.49-1.08 1.49a1 1 0 01-.7-.31 1.09 1.09 0 01-.29-.72 8.1 8.1 0 01.24-1.08 16.5 16.5 0 00.24-3.29 14.79 14.79 0 00-.07-1.73c-.67-.05-1-.38-1-1s.32-.86 1-1.1a4 4 0 010-.55 13.55 13.55 0 01.86-5q1.26-3.17 3.53-3.17a2.85 2.85 0 012.47 1.27 5 5 0 01.79 2.88c.03 2.56-1.97 4.58-5.75 5.97zm3.48-7.65a1.25 1.25 0 00-1-.53c-.67 0-1.27.72-1.78 2.13a12 12 0 00-.67 3.92c2.52-.92 3.79-2.36 3.79-4.32a2.22 2.22 0 00-.34-1.2zM575.35 272.27c.08 1 .12 2 .12 3a15.74 15.74 0 01-.36 3.34c-.21 1-.57 1.49-1.08 1.49a1 1 0 01-.69-.31 1.09 1.09 0 01-.29-.72 8.1 8.1 0 01.24-1.08 17.31 17.31 0 00.24-3.29 14.79 14.79 0 00-.07-1.73c-.67-.05-1-.38-1-1s.32-.86 1-1.1a2.71 2.71 0 010-.55 13.54 13.54 0 01.87-5c.84-2.11 2-3.17 3.53-3.17a2.85 2.85 0 012.47 1.27 5 5 0 01.79 2.88c-.03 2.56-1.95 4.58-5.77 5.97zm3.48-7.65a1.23 1.23 0 00-1-.53c-.68 0-1.28.72-1.78 2.13a11.71 11.71 0 00-.67 3.92c2.52-.92 3.79-2.36 3.79-4.32a2.14 2.14 0 00-.34-1.2zM588.78 275.27a4.23 4.23 0 01-4-2.47H584a4.68 4.68 0 01-1.85-.38c-.82-.34-1.2-.77-1.2-1.3s.31-1 .93-1a1.54 1.54 0 01.72.36 1.68 1.68 0 001 .36h.55a6.07 6.07 0 01-.1-1 6.4 6.4 0 01.87-3.24 2.93 2.93 0 012.54-1.78 2.47 2.47 0 011.75.87 2.64 2.64 0 01.87 1.89c0 1.78-1.2 3.31-3.6 4.61a2.42 2.42 0 001.92 1 8.14 8.14 0 00.91-.07c.41-.05.72-.1.91-.1a1 1 0 01.67.32 1.11 1.11 0 01.29.72c.02.8-.79 1.21-2.4 1.21zm-.82-8.13a.94.94 0 00-.57-.24c-.44 0-.77.36-1 1.08a5 5 0 00-.34 1.87v.43c1.44-.94 2.16-1.8 2.16-2.59a.89.89 0 00-.21-.55zM600.21 274.38c-.05.44-.24.68-.57.68a1.11 1.11 0 01-.89-.44 1.62 1.62 0 01-.36-1l.14-1.37.36-3.07a16.63 16.63 0 00-4.2 4.27c-.17.29-.31.6-.45.89s-.48.6-.72.6c-1 0-1.49-1.41-1.49-4.27a21.58 21.58 0 01.79-5.71c.1-.34.26-.53.55-.53a1.18 1.18 0 01.91.41 1.64 1.64 0 01.36 1c-.12.48-.24 1-.36 1.58a20 20 0 00-.36 3.7 19.56 19.56 0 015.48-4.73 1.85 1.85 0 01.93.36 1.13 1.13 0 01.46.89c0 1.1-.19 3.36-.58 6.74z" fill="#1d2d35"/><circle cx="255.18" cy="92.28" fill="#ffe000" opacity=".3" r="13.63"/><circle cx="277.76" cy="66.9" fill="#ffe000" opacity=".7" r="13.63"/><circle cx="305.88" cy="47.06" fill="#ffe000" r="13.63"/><path d="M242.09 59.51c9.6-14.12 21.8-28 46.18-36.86M281.53 18.51c5.88 3.78 13.57-.62 5.16 11.52" fill="none" stroke="#ffe000" stroke-linecap="round" stroke-linejoin="round" stroke-width="3"/></svg>